HIERARCHY
ROOT Hips
{
	OFFSET 0.00000 0.00000 0.00000
	CHANNELS 6 Xposition Yposition Zposition Zrotation Yrotation Xrotation 
	JOINT LHipJoint
	{
		OFFSET 0 0 0
		CHANNELS 3 Zrotation Yrotation Xrotation
		JOINT LeftHip
		{
			OFFSET 1.85742 -1.74412 1.01653
			CHANNELS 3 Zrotation Yrotation Xrotation
			JOINT LeftKnee
			{
				OFFSET 2.54803 -7.00067 0.00000
				CHANNELS 3 Zrotation Yrotation Xrotation
				JOINT LeftAnkle
				{
					OFFSET 2.51202 -6.90173 0.00000
					CHANNELS 3 Zrotation Yrotation Xrotation
					JOINT LeftToe
					{
						OFFSET 0.17547 -0.48209 1.64281
						CHANNELS 3 Zrotation Yrotation Xrotation
						End Site
						{
							OFFSET 0.00000 -0.00000 0.86587
						}
					}
				}
			}
		}
	}
	JOINT RHipJoint
	{
		OFFSET 0 0 0
		CHANNELS 3 Zrotation Yrotation Xrotation
		JOINT RightHip
		{
			OFFSET -1.95533 -1.74413 1.01654
			CHANNELS 3 Zrotation Yrotation Xrotation
			JOINT RightKnee
			{
				OFFSET -2.49465 -6.85400 0.00000
				CHANNELS 3 Zrotation Yrotation Xrotation
				JOINT RightAnkle
				{
					OFFSET -2.54783 -7.00010 0.00000
					CHANNELS 3 Zrotation Yrotation Xrotation
					JOINT RightToe
					{
						OFFSET -0.18513 -0.50864 1.69288
						CHANNELS 3 Zrotation Yrotation Xrotation
						End Site
						{
							OFFSET -0.00000 -0.00000 0.89242
						}
					}
				}
			}
		}
	}
	JOINT lowerback
	{
		OFFSET 0 0 0
		CHANNELS 3 Zrotation Yrotation Xrotation
		JOINT Chest
		{
			OFFSET 0.02173 2.16290 -0.15998
			CHANNELS 3 Zrotation Yrotation Xrotation
			JOINT Chest2
			{
				OFFSET 0.00940 2.17323 -0.00467
				CHANNELS 3 Zrotation Yrotation Xrotation
				JOINT lowerneck
				{
					OFFSET 0 0 0
					CHANNELS 3 Zrotation Yrotation Xrotation
					JOINT Neck
					{
						OFFSET 0.01475 1.85823 0.31113
						CHANNELS 3 Zrotation Yrotation Xrotation
						JOINT Head
						{
							OFFSET 0.01902 1.88783 -0.37187
							CHANNELS 3 Zrotation Yrotation Xrotation
							End Site
							{
								OFFSET 0.00489 1.93211 -0.16169
							}
						}
					}
				}
				JOINT LeftCollar
				{
					OFFSET 0 0 0
					CHANNELS 3 Zrotation Yrotation Xrotation
					JOINT LeftShoulder
					{
						OFFSET 3.34199 1.32384 -0.07862
CHANNELS 3 Zrotation Xrotation Yrotation
						JOINT LeftElbow
						{
OFFSET 0 -5.279500 0.000000
CHANNELS 3 Zrotation Xrotation Yrotation
							JOINT LeftWrist
							{
OFFSET 0 -3.535040 0.000000
CHANNELS 3 Zrotation Xrotation Yrotation
								JOINT lhand
								{
									OFFSET 0 0 0
CHANNELS 3 Zrotation Xrotation Yrotation
									JOINT LFingers
									{
OFFSET 0 -0.667950 0.000000
CHANNELS 3 Zrotation Xrotation Yrotation
										End Site
										{
OFFSET 0 -0.538520 0.000000
										}
									}
								}
								JOINT LThumb
								{
OFFSET 0 0.000000 0.000000
CHANNELS 3 Zrotation Xrotation Yrotation
									End Site
									{
OFFSET 0 -0.546740 0.546740
									}
								}
							}
						}
					}
				}
				JOINT RightCollar
				{
					OFFSET 0 0 0
					CHANNELS 3 Zrotation Yrotation Xrotation
					JOINT RightShoulder
					{
						OFFSET -3.16149 1.45719 -0.50507
CHANNELS 3 Zrotation Xrotation Yrotation
						JOINT RightElbow
						{
OFFSET 0 -5.250350 0.000000
CHANNELS 3 Zrotation Xrotation Yrotation
							JOINT RightWrist
							{
OFFSET 0 -3.588840 0.000000
CHANNELS 3 Zrotation Xrotation Yrotation
								JOINT rhand
								{
									OFFSET 0 0 0
CHANNELS 3 Zrotation Xrotation Yrotation
									JOINT RFingers
									{
OFFSET 0 -0.779240 0.000000
CHANNELS 3 Zrotation Xrotation Yrotation
										End Site
										{
OFFSET 0 -0.628240 0.000000
										}
									}
								}
								JOINT RThumb
								{
OFFSET 0 0.000000 0.000000
CHANNELS 3 Zrotation Xrotation Yrotation
									End Site
									{
OFFSET 0 -0.637830 0.637830
									}
								}
							}
						}
					}
				}
			}
		}
	}
}
MOTION
Frames: 11
Frame Time: 0.008333333333333333
7.086900 17.548000 -11.005700 -2.676100 -21.437200 5.532600 0.000000 0.000000 0.000000 -17.271700 -19.607800 -2.720600 1.599400 7.976500 22.642700 0.263600 20.664300 -31.011500 0.000900 0.190400 0.523000 0.000000 0.000000 0.000000 22.666000 27.022900 3.434400 -0.368600 -3.899900 10.795100 2.911300 -28.547000 -12.395200 -1.733400 8.287200 -23.589900 2.314200 1.805400 1.930000 0.342100 2.537100 -4.637300 -1.113300 1.155600 -5.803600 4.990400 7.458000 -23.474200 -0.277600 8.876500 26.832000 0.674300 4.368700 13.150900 0.000000 -0.000000 0.000000 6.050700 5.609100 -45.512700 18.515500 -28.812100 4.795100 31.061900 -8.089100 -55.145200 0.000000 0.000000 0.000000 -7.125000 0.000000 0.000000 -84.034600 83.550400 77.541800 0.000000 -0.000000 0.000000 -6.147100 14.226400 32.396900 -18.173300 -28.378500 -4.631300 -21.078800 -17.137100 -12.378300 0.000000 0.000000 0.000000 7.125000 0.000000 -0.000000 4.274900 16.767600 2.867900
7.078548 17.553093 -11.014408 -2.691732 -21.188837 5.675861 0.000000 0.000000 0.000000 -16.991085 -19.097711 -3.222880 1.601774 7.982033 22.659462 0.272852 20.264460 -30.562446 0.022035 -0.908771 -2.498164 0.000000 0.000000 0.000000 22.649058 26.789881 3.404161 -0.343955 -3.768214 10.425521 2.925126 -28.600692 -12.159789 -1.734203 8.288972 -23.595372 2.252202 1.667127 1.989107 0.438631 2.357034 -4.739092 -0.970650 1.068617 -5.957750 5.232367 7.514982 -23.109566 -0.740221 9.016132 26.271791 0.457772 4.399426 12.893937 0.000000 0.000000 0.000000 6.088183 5.745842 -45.877096 18.914749 -29.312297 4.989145 32.621270 -7.649828 -55.419271 0.000000 0.000000 0.000000 -7.125000 0.000000 0.000000 -89.889076 84.032418 83.892099 0.000000 0.000000 0.000000 -6.219389 14.131518 31.933421 -18.221099 -28.439297 -4.654079 -19.703902 -15.882011 -13.876697 0.000000 0.000000 0.000000 7.125000 0.000000 0.000000 5.273535 15.320172 3.711849
7.074441 17.560838 -11.012985 -2.657990 -21.041630 5.687671 0.000000 0.000000 0.000000 -16.930407 -18.893338 -3.381008 1.607557 7.995788 22.701193 0.297764 20.018272 -30.418226 0.067742 -1.677866 -4.616076 0.000000 0.000000 0.000000 22.605600 26.570724 3.550337 -0.317339 -3.620751 10.012039 2.924086 -28.595894 -12.136787 -1.622592 8.030220 -22.806480 2.262591 1.647349 2.064822 0.431271 2.334046 -4.790431 -0.985987 1.054771 -6.055752 5.375718 7.507721 -22.864285 -0.935014 9.013041 25.866032 0.342027 4.392748 12.700584 0.000000 0.000000 0.000000 6.230619 5.808212 -46.274381 19.217687 -29.688217 5.138282 33.715544 -7.429694 -55.724197 0.000000 0.000000 0.000000 -7.125000 0.000000 0.000000 -89.937595 -84.307789 -95.656644 0.000000 0.000000 0.000000 -6.286378 14.169224 32.100119 -18.408494 -28.677020 -4.743660 -18.522881 -14.672425 -15.315141 0.000000 0.000000 0.000000 7.125000 0.000000 0.000000 6.125341 13.937001 4.497715
7.072522 17.567189 -11.009888 -2.646267 -20.960358 5.702992 0.000000 0.000000 0.000000 -16.919109 -19.035059 -3.374981 1.623424 8.033316 22.815204 0.370833 19.833811 -30.678989 0.126223 -2.275903 -6.269405 0.000000 0.000000 0.000000 22.573198 26.413583 3.735444 -0.289619 -3.460704 9.564137 2.940369 -28.664342 -12.051160 -1.529579 7.808615 -22.134156 2.368306 1.649677 2.081999 0.399219 2.341666 -4.805112 -1.079646 1.052277 -6.075755 5.368772 7.510269 -22.885439 -0.843653 8.986499 25.792141 0.371911 4.393689 12.668600 0.000000 0.000000 0.000000 6.370193 5.840506 -46.572126 19.484270 -30.015879 5.270930 34.982361 -6.856806 -56.046903 0.000000 0.000000 0.000000 -7.125000 0.000000 0.000000 -97.491155 -84.567788 -102.927716 0.000000 0.000000 0.000000 -6.465313 13.894810 32.452570 -18.331169 -28.579008 -4.706624 -17.217402 -13.284934 -17.082623 0.000000 0.000000 0.000000 7.125000 0.000000 0.000000 7.059395 12.248187 5.446211
7.070281 17.567044 -11.007474 -2.705054 -20.888224 5.735120 0.000000 0.000000 0.000000 -16.788866 -18.730549 -3.609204 1.637642 8.066577 22.916379 0.372465 19.684778 -30.505088 0.181970 -2.745488 -7.571177 0.000000 0.000000 0.000000 22.630802 26.289965 3.892038 -0.270594 -3.345945 9.243406 2.942766 -28.671429 -11.824835 -1.548580 7.854432 -22.272972 2.587251 1.629807 2.109002 0.352289 2.325069 -4.812919 -1.250401 1.031992 -6.090409 5.587701 7.553762 -22.978453 -0.998718 9.010653 25.837813 0.288190 4.402269 12.727834 0.000000 0.000000 0.000000 6.483242 5.831854 -46.614921 19.512645 -30.050698 5.285154 35.103401 -6.831433 -56.063899 0.000000 0.000000 0.000000 -7.125000 0.000000 0.000000 -98.079247 -84.601086 -103.483285 0.000000 0.000000 0.000000 -6.699605 13.606701 33.169595 -18.174318 -28.379782 -4.631755 -16.101843 -11.764499 -18.921712 0.000000 0.000000 0.000000 7.125000 0.000000 0.000000 7.859497 10.488755 6.361322
7.068437 17.566871 -11.008274 -2.687615 -20.820531 5.727318 0.000000 0.000000 0.000000 -16.724048 -18.300058 -3.874926 1.641274 8.075041 22.942216 0.343317 19.559256 -30.151503 0.208499 -2.939666 -8.110668 0.000000 0.000000 0.000000 22.622552 26.200040 3.948303 -0.263110 -3.299987 9.115017 2.942296 -28.669389 -11.813442 -1.494215 7.721809 -21.872256 2.729519 1.603747 2.198519 0.261998 2.296635 -4.846978 -1.425121 1.007018 -6.170531 5.880458 7.612907 -23.014765 -1.162403 9.036382 25.900154 0.188060 4.418229 12.787698 0.000000 0.000000 0.000000 6.597673 5.832902 -46.640991 19.433131 -29.953290 5.245414 35.273548 -6.643626 -55.953892 0.000000 0.000000 0.000000 -7.125000 0.000000 0.000000 -97.838944 -84.698794 -103.145967 0.000000 0.000000 0.000000 -6.889199 13.581832 34.067902 -18.185203 -28.393672 -4.637027 -15.175095 -10.252496 -20.760378 0.000000 0.000000 0.000000 7.125000 0.000000 0.000000 8.530216 8.727989 7.220011
7.067533 17.572778 -11.005677 -2.680778 -20.812494 5.706359 0.000000 0.000000 0.000000 -16.719974 -18.278170 -3.831921 1.641545 8.075756 22.944324 0.372334 19.364512 -30.108413 0.189842 -2.805907 -7.738924 0.000000 0.000000 0.000000 22.634333 26.178518 3.994274 -0.262600 -3.296778 9.106233 2.931475 -28.621986 -11.740538 -1.541991 7.838566 -22.224855 2.781595 1.633511 2.228548 0.252540 2.339982 -4.850472 -1.468242 1.025341 -6.187435 5.990635 7.618044 -22.984126 -1.263096 9.036015 25.897746 0.131465 4.415355 12.793002 0.000000 0.000000 0.000000 6.511531 5.778528 -46.587416 19.286508 -29.773088 5.172371 35.276519 -6.435853 -55.946466 0.000000 0.000000 0.000000 -7.125000 0.000000 0.000000 -97.784265 -84.703063 -103.087380 0.000000 0.000000 0.000000 -7.025068 13.684524 34.106866 -18.219586 -28.437510 -4.653315 -14.335647 -8.087850 -22.704157 0.000000 0.000000 0.000000 7.125000 0.000000 0.000000 9.146794 6.869919 8.095372
7.066103 17.568843 -11.004208 -2.741983 -20.836474 5.643461 0.000000 0.000000 0.000000 -16.638535 -17.991118 -3.847970 1.643342 8.079973 22.957262 0.382043 19.269259 -30.057129 0.255600 -3.247535 -8.969096 0.000000 0.000000 0.000000 22.751171 26.172308 4.111367 -0.263104 -3.299698 9.114246 2.922463 -28.583632 -11.780646 -1.563621 7.890770 -22.382975 2.825134 1.671006 2.303303 0.315905 2.398276 -4.821359 -1.433020 1.053930 -6.198367 6.019521 7.626098 -22.989866 -1.370374 9.072842 25.957279 0.094494 4.418789 12.827472 0.000000 0.000000 0.000000 6.364508 5.723777 -46.525482 19.134301 -29.585123 5.096977 35.094148 -6.462375 -56.020877 0.000000 0.000000 0.000000 -7.125000 0.000000 0.000000 -97.678113 -84.618158 -103.068258 0.000000 0.000000 0.000000 -7.178387 13.794717 33.520547 -18.202810 -28.416084 -4.645364 -13.257591 -4.815557 -25.821048 0.000000 0.000000 0.000000 7.125000 0.000000 0.000000 9.970704 3.887785 9.418007
7.062695 17.566429 -11.007624 -2.721439 -20.871517 5.653069 0.000000 0.000000 0.000000 -16.514324 -17.210140 -4.273431 1.647005 8.088403 22.983030 0.369027 18.926478 -29.544644 0.314087 -3.602341 -9.960566 0.000000 0.000000 0.000000 22.746037 26.220347 4.093480 -0.264441 -3.308296 9.138223 2.930293 -28.619977 -12.002092 -1.422575 7.541099 -21.329267 2.757115 1.679906 2.317241 0.349858 2.408858 -4.823553 -1.361060 1.063071 -6.212130 5.987737 7.658489 -23.028238 -1.335960 9.122463 26.065562 0.125548 4.440647 12.877042 0.000000 0.000000 0.000000 6.293130 5.706562 -46.402419 18.970260 -29.381738 5.016310 34.838744 -6.576731 -55.946661 0.000000 0.000000 0.000000 -7.125000 0.000000 0.000000 -96.000882 -84.577876 -101.443765 0.000000 0.000000 0.000000 -7.320403 13.872934 34.338858 -18.220682 -28.438757 -4.653862 -13.342082 -4.450155 -25.174798 0.000000 0.000000 0.000000 7.125000 0.000000 0.000000 9.883911 4.521311 9.215211
7.061567 17.564999 -11.003495 -2.629525 -21.004842 5.515125 0.000000 0.000000 0.000000 -16.684670 -17.352013 -3.994140 1.643330 8.079827 22.956846 0.434213 18.731940 -29.760456 0.196037 -2.844643 -7.846812 0.000000 0.000000 0.000000 22.746969 26.339095 4.150151 -0.273338 -3.362996 9.291083 3.017765 -28.994073 -11.312040 -1.684424 8.168423 -23.230725 2.708279 1.703086 2.362448 0.343356 2.437394 -4.763228 -1.343005 1.080679 -6.174498 5.948522 7.711884 -23.064709 -1.289426 9.202329 26.192517 0.168278 4.476545 12.933889 0.000000 0.000000 0.000000 6.248250 5.717040 -46.354646 18.826340 -29.202258 4.945871 34.993104 -6.548523 -55.797834 0.000000 0.000000 0.000000 -7.125000 0.000000 0.000000 -95.308095 -84.686591 -100.644104 0.000000 0.000000 0.000000 -7.407603 13.879309 34.832977 -18.152069 -28.351427 -4.621252 -13.494052 -4.210329 -24.580886 0.000000 0.000000 0.000000 7.125000 0.000000 0.000000 9.760090 5.096065 8.992205
7.062856 17.561084 -10.992589 -2.617191 -21.181780 5.356884 0.000000 0.000000 0.000000 -16.887997 -17.688039 -3.549685 1.636928 8.064844 22.911153 0.435302 19.101123 -30.215218 0.168061 -2.640839 -7.280441 0.000000 0.000000 0.000000 22.789907 26.478714 4.282244 -0.284852 -3.432504 9.485356 3.012067 -28.967582 -11.458174 -1.646338 8.085337 -22.974435 2.817815 1.735714 2.386293 0.343116 2.486300 -4.679397 -1.407124 1.101856 -6.093163 5.883069 7.773275 -23.085521 -1.271093 9.316383 26.372695 0.211635 4.520342 13.010726 0.000000 0.000000 0.000000 6.176777 5.762732 -46.161388 18.674239 -29.011855 4.871878 34.863532 -6.498558 -55.748793 0.000000 0.000000 0.000000 -7.125000 0.000000 0.000000 -94.354411 -84.667749 -99.712983 0.000000 0.000000 0.000000 -7.410893 13.871432 34.995654 -18.015823 -28.177497 -4.556702 -13.643153 -4.495360 -26.015378 0.000000 0.000000 0.000000 7.125000 0.000000 0.000000 9.749554 3.641942 9.247720
